<svg width="18" height="19" viewBox="0 0 18 19" fill="none" xmlns="http://www.w3.org/2000/svg">
<path d="M17.8253 7.7375H17.1004V7.70015H9.00019V11.3002H14.0866C13.3446 13.3959 11.3506 14.9003 9.00019 14.9003C6.01798 14.9003 3.60008 12.4824 3.60008 9.50019C3.60008 6.51798 6.01798 4.10008 9.00019 4.10008C10.3768 4.10008 11.6291 4.61939 12.5827 5.46765L15.1284 2.92195C13.521 1.42387 11.3708 0.5 9.00019 0.5C4.02983 0.5 0 4.52983 0 9.50019C0 14.4705 4.02983 18.5004 9.00019 18.5004C13.9705 18.5004 18.0004 14.4705 18.0004 9.50019C18.0004 8.89673 17.9383 8.30766 17.8253 7.7375Z" fill="#FFC107"/>
<path d="M1.03711 5.31105L3.99412 7.47965C4.79424 5.49871 6.73198 4.10008 8.99958 4.10008C10.3762 4.10008 11.6285 4.61939 12.5821 5.46765L15.1278 2.92195C13.5204 1.42387 11.3702 0.5 8.99958 0.5C5.5426 0.5 2.54464 2.45169 1.03711 5.31105Z" fill="#FF3D00"/>
<path d="M9.0007 18.502C11.3254 18.502 13.4378 17.6124 15.0349 16.1656L12.2493 13.8084C11.3155 14.519 10.1741 14.9032 9.0007 14.9019C6.65975 14.9019 4.67206 13.4093 3.92324 11.3262L0.988281 13.5875C2.47781 16.5022 5.50278 18.502 9.0007 18.502Z" fill="#4CAF50"/>
<path d="M17.8251 7.73657H17.1002V7.69922H9V11.2993H14.0865C13.7315 12.2967 13.0921 13.1683 12.2473 13.8063L12.2486 13.8054L15.0342 16.1625C14.8371 16.3417 18.0002 13.9994 18.0002 9.49926C18.0002 8.89579 17.9381 8.30673 17.8251 7.73657Z" fill="#1976D2"/>
</svg>
