<svg width="16" height="15" viewBox="0 0 16 15" fill="none" xmlns="http://www.w3.org/2000/svg">
<path d="M7.53223 5.64C7.16435 5.64 6.80474 5.74909 6.49887 5.95347C6.19299 6.15785 5.95459 6.44834 5.81381 6.78821C5.67303 7.12808 5.6362 7.50206 5.70797 7.86287C5.77973 8.22367 5.95688 8.55509 6.21701 8.81522C6.47713 9.07534 6.80855 9.25249 7.16936 9.32426C7.53016 9.39603 7.90415 9.35919 8.24402 9.21842C8.58389 9.07764 8.87438 8.83924 9.07876 8.53336C9.28314 8.22749 9.39223 7.86787 9.39223 7.5C9.39223 7.25574 9.34412 7.01387 9.25064 6.78821C9.15717 6.56254 9.02016 6.3575 8.84745 6.18478C8.67473 6.01206 8.46968 5.87506 8.24402 5.78158C8.01835 5.68811 7.77649 5.64 7.53223 5.64ZM14.9797 3.8025C14.9763 3.22327 14.8696 2.6493 14.6647 2.1075C14.5142 1.71094 14.2813 1.35082 13.9813 1.05089C13.6814 0.750958 13.3213 0.518038 12.9247 0.3675C12.3829 0.162636 11.809 0.0559679 11.2297 0.0524999C10.2622 -5.02914e-08 9.97723 0 7.53223 0C5.08723 0 4.80223 -5.02914e-08 3.83473 0.0524999C3.2555 0.0559679 2.68153 0.162636 2.13973 0.3675C1.74317 0.518038 1.38305 0.750958 1.08312 1.05089C0.783184 1.35082 0.550265 1.71094 0.399727 2.1075C0.194862 2.6493 0.0881945 3.22327 0.0847265 3.8025C0.0322265 4.77 0.0322266 5.055 0.0322266 7.5C0.0322266 9.945 0.0322265 10.23 0.0847265 11.1975C0.0933738 11.7787 0.199864 12.3542 0.399727 12.9C0.548755 13.2952 0.781591 13.6534 1.08223 13.95C1.38102 14.2515 1.74188 14.4844 2.13973 14.6325C2.68153 14.8374 3.2555 14.944 3.83473 14.9475C4.80223 15 5.08723 15 7.53223 15C9.97723 15 10.2622 15 11.2297 14.9475C11.809 14.944 12.3829 14.8374 12.9247 14.6325C13.3226 14.4844 13.6834 14.2515 13.9822 13.95C14.2829 13.6534 14.5157 13.2952 14.6647 12.9C14.8689 12.3554 14.9756 11.7791 14.9797 11.1975C15.0322 10.23 15.0322 9.945 15.0322 7.5C15.0322 5.055 15.0322 4.77 14.9797 3.8025ZM13.0747 9.8025C13.0511 10.2654 12.9523 10.7213 12.7822 11.1525C12.6366 11.5123 12.4202 11.8391 12.1457 12.1135C11.8713 12.3879 11.5445 12.6044 11.1847 12.75C10.7495 12.9106 10.291 12.9992 9.82723 13.0125H5.23723C4.77348 12.9992 4.31499 12.9106 3.87973 12.75C3.50769 12.612 3.17177 12.3915 2.89723 12.105C2.62529 11.8361 2.41539 11.511 2.28223 11.1525C2.12153 10.7175 2.03532 10.2586 2.02723 9.795V5.205C2.03532 4.74138 2.12153 4.28245 2.28223 3.8475C2.4202 3.47546 2.64073 3.13954 2.92723 2.865C3.19762 2.5949 3.52228 2.38528 3.87973 2.25C4.31499 2.08942 4.77348 2.00076 5.23723 1.9875H9.82723C10.291 2.00076 10.7495 2.08942 11.1847 2.25C11.5568 2.38798 11.8927 2.6085 12.1672 2.895C12.4392 3.16391 12.6491 3.48899 12.7822 3.8475C12.9428 4.28276 13.0315 4.74125 13.0447 5.205V7.5C13.0447 9.045 13.0972 9.2025 13.0747 9.795V9.8025ZM11.8747 4.2225C11.7854 3.98024 11.6446 3.76023 11.4621 3.57766C11.2795 3.39509 11.0595 3.2543 10.8172 3.165C10.4846 3.0497 10.1342 2.99384 9.78223 3H5.28223C4.92843 3.00346 4.57803 3.06948 4.24723 3.195C4.00867 3.28024 3.791 3.41528 3.60866 3.59115C3.42633 3.76702 3.28352 3.97968 3.18973 4.215C3.08121 4.54912 3.028 4.89872 3.03223 5.25V9.75C3.04007 10.1034 3.10595 10.453 3.22723 10.785C3.31652 11.0273 3.45731 11.2473 3.63989 11.4298C3.82246 11.6124 4.04246 11.7532 4.28473 11.8425C4.60483 11.9598 4.94151 12.0256 5.28223 12.0375H9.78223C10.136 12.034 10.4864 11.968 10.8172 11.8425C11.0595 11.7532 11.2795 11.6124 11.4621 11.4298C11.6446 11.2473 11.7854 11.0273 11.8747 10.785C12.0003 10.4542 12.0663 10.1038 12.0697 9.75V5.25C12.0696 4.89588 12.0035 4.54489 11.8747 4.215V4.2225ZM7.53223 10.365C7.15634 10.365 6.78415 10.2908 6.43697 10.1468C6.0898 10.0027 5.77445 9.79155 5.50901 9.52541C5.24357 9.25927 5.03325 8.94338 4.89008 8.59582C4.74692 8.24827 4.67374 7.87588 4.67473 7.5C4.67473 6.93304 4.84295 6.37882 5.15809 5.90751C5.47324 5.43621 5.92113 5.069 6.44508 4.85238C6.96903 4.63575 7.54546 4.57946 8.10142 4.69061C8.65738 4.80177 9.16786 5.07538 9.56824 5.47681C9.96862 5.87823 10.2409 6.38943 10.3506 6.94568C10.4603 7.50193 10.4025 8.07822 10.1845 8.60159C9.96649 9.12497 9.59811 9.5719 9.12597 9.88581C8.65384 10.1997 8.09919 10.3665 7.53223 10.365ZM10.5322 5.1975C10.3664 5.17995 10.213 5.10167 10.1015 4.97773C9.98998 4.85379 9.92828 4.69297 9.92828 4.52625C9.92828 4.35953 9.98998 4.19871 10.1015 4.07477C10.213 3.95083 10.3664 3.87255 10.5322 3.855C10.698 3.87255 10.8515 3.95083 10.963 4.07477C11.0745 4.19871 11.1362 4.35953 11.1362 4.52625C11.1362 4.69297 11.0745 4.85379 10.963 4.97773C10.8515 5.10167 10.698 5.17995 10.5322 5.1975Z" fill="white"/>
</svg>
