<svg width="17" height="16" viewBox="0 0 17 16" fill="none" xmlns="http://www.w3.org/2000/svg">
<path d="M0.0302734 1.146C0.0302734 0.513 0.556273 0 1.20527 0H14.8553C15.5043 0 16.0303 0.513 16.0303 1.146V14.854C16.0303 15.487 15.5043 16 14.8553 16H1.20527C0.556273 16 0.0302734 15.487 0.0302734 14.854V1.146ZM4.97327 13.394V6.169H2.57227V13.394H4.97327ZM3.77327 5.182C4.61027 5.182 5.13127 4.628 5.13127 3.934C5.11627 3.225 4.61127 2.686 3.78927 2.686C2.96727 2.686 2.43027 3.226 2.43027 3.934C2.43027 4.628 2.95127 5.182 3.75727 5.182H3.77327ZM8.68127 13.394V9.359C8.68127 9.143 8.69727 8.927 8.76127 8.773C8.93427 8.342 9.32927 7.895 9.99327 7.895C10.8623 7.895 11.2093 8.557 11.2093 9.529V13.394H13.6103V9.25C13.6103 7.03 12.4263 5.998 10.8463 5.998C9.57227 5.998 9.00127 6.698 8.68127 7.191V7.216H8.66527L8.68127 7.191V6.169H6.28127C6.31127 6.847 6.28127 13.394 6.28127 13.394H8.68127Z" fill="white"/>
</svg>
