<svg width="26" height="26" viewBox="0 0 26 26" fill="none" xmlns="http://www.w3.org/2000/svg">
<path d="M19.6287 0.8125H6.37125C4.89698 0.8125 3.48309 1.39815 2.44062 2.44062C1.39815 3.48309 0.8125 4.89698 0.8125 6.37125V19.6287C0.8125 21.103 1.39815 22.5169 2.44062 23.5594C3.48309 24.6018 4.89698 25.1875 6.37125 25.1875H19.6287C21.103 25.1875 22.5169 24.6018 23.5594 23.5594C24.6018 22.5169 25.1875 21.103 25.1875 19.6287V6.37125C25.1875 4.89698 24.6018 3.48309 23.5594 2.44062C22.5169 1.39815 21.103 0.8125 19.6287 0.8125ZM9.05375 20.49C9.05767 20.558 9.04764 20.6262 9.02427 20.6902C9.0009 20.7542 8.96469 20.8128 8.91787 20.8623C8.87104 20.9118 8.81459 20.9512 8.75197 20.9781C8.68936 21.005 8.6219 21.0189 8.55375 21.0188H6.32875C6.19457 21.0155 6.06703 20.9597 5.97354 20.8634C5.88004 20.7671 5.82806 20.638 5.82875 20.5037V11.25C5.82691 11.1832 5.83849 11.1167 5.86279 11.0544C5.88709 10.9922 5.92363 10.9354 5.97024 10.8875C6.01686 10.8396 6.0726 10.8016 6.13418 10.7756C6.19575 10.7496 6.26192 10.7362 6.32875 10.7362H8.55375C8.62058 10.7362 8.68675 10.7496 8.74832 10.7756C8.8099 10.8016 8.86564 10.8396 8.91226 10.8875C8.95887 10.9354 8.99541 10.9922 9.01971 11.0544C9.04401 11.1167 9.05559 11.1832 9.05375 11.25V20.49ZM7.4 8.79C7.15911 8.78819 6.92093 8.73896 6.69906 8.6451C6.4772 8.55125 6.27599 8.41462 6.10693 8.243C5.93787 8.07139 5.80426 7.86815 5.71375 7.64491C5.62323 7.42166 5.57757 7.18277 5.57937 6.94187C5.58118 6.70098 5.63042 6.4628 5.72427 6.24094C5.81812 6.01907 5.95476 5.81786 6.12637 5.6488C6.29799 5.47974 6.50122 5.34614 6.72447 5.25562C6.94772 5.1651 7.18661 5.11944 7.4275 5.12125C7.90565 5.1368 8.35879 5.33859 8.69023 5.68357C9.02168 6.02855 9.20518 6.4894 9.20159 6.96779C9.19801 7.44617 9.00761 7.90422 8.67102 8.24418C8.33444 8.58415 7.87833 8.77912 7.4 8.7875M20.9212 20.475C20.9207 20.6013 20.8711 20.7224 20.7829 20.8129C20.6948 20.9034 20.575 20.9561 20.4487 20.96H18.1C17.9735 20.9561 17.8535 20.9032 17.7654 20.8125C17.6772 20.7217 17.6278 20.6003 17.6275 20.4738V16.1938C17.6275 15.555 17.8225 13.415 15.9325 13.415C14.4587 13.415 14.1675 14.915 14.1112 15.5825V20.5712C14.1113 20.698 14.062 20.8198 13.9738 20.9108C13.8856 21.0018 13.7654 21.0549 13.6388 21.0588H11.36C11.2309 21.0584 11.1072 21.0069 11.0161 20.9155C10.9249 20.8241 10.8737 20.7003 10.8737 20.5712V11.205C10.8776 11.0783 10.9307 10.9581 11.0217 10.8699C11.1127 10.7817 11.2345 10.7324 11.3612 10.7325H13.6388C13.7655 10.7324 13.8873 10.7817 13.9783 10.8699C14.0693 10.9581 14.1224 11.0783 14.1263 11.205V12.0112C14.4588 11.5245 14.9179 11.1378 15.4541 10.8929C15.9902 10.6479 16.5831 10.554 17.1688 10.6213C20.9625 10.6213 20.9487 14.165 20.9487 16.18L20.9212 20.475Z" fill="#0076B2"/>
</svg>
