<svg width="100" height="100" viewBox="0 0 100 100" fill="none" xmlns="http://www.w3.org/2000/svg">
<rect width="100" height="100" rx="7" fill="#121212"/>
<path d="M20.0865 55.2012V46.8358L12.9327 36.5089V34.7781H20.1731L23.0577 40.7204H23.6346L26.4904 34.7781H33.7019V36.5089L26.3462 47.0089L26.5192 49.9223V55.2012H20.0865ZM41.7212 55.2012V46.8358L34.5673 36.5089V34.7781H41.8077L44.6923 40.7204H45.2692L48.125 34.7781H55.3365V36.5089L47.9808 47.0089L48.1538 49.9223V55.2012H41.7212ZM65.9796 55.4896C64.6527 55.4896 63.3642 55.3358 62.1142 55.0281C60.8835 54.7204 59.7777 54.1819 58.7969 53.4127C57.8162 52.6435 57.0373 51.5762 56.4604 50.2108C55.8835 48.8454 55.595 47.105 55.595 44.9896C55.595 43.0858 55.8739 41.4704 56.4316 40.1435C56.9892 38.7973 57.7489 37.7108 58.7104 36.8839C59.6719 36.0569 60.7777 35.4512 62.0277 35.0666C63.2777 34.6819 64.595 34.4896 65.9796 34.4896C66.9604 34.4896 67.9123 34.5666 68.8354 34.7204C69.7777 34.8743 70.4604 35.0473 70.8835 35.2396L74.3739 38.1531L71.4892 42.9127L65.9796 40.3743C65.3258 40.3743 64.7104 40.5569 64.1335 40.9223C63.5758 41.2685 63.1142 41.7877 62.7489 42.48C62.4027 43.1531 62.2296 43.9896 62.2296 44.9896C62.2296 46.2589 62.4219 47.2396 62.8066 47.9319C63.2104 48.605 63.7777 49.0666 64.5085 49.3166C65.2585 49.5666 66.1431 49.6916 67.1623 49.6916C68.1431 49.6916 69.0662 49.5954 69.9316 49.4031C70.8162 49.1916 71.595 48.9512 72.2681 48.6819C72.9412 48.4127 73.4508 48.1819 73.7969 47.9896V53.7589C73.4123 53.9512 72.8642 54.1916 72.1527 54.48C71.4604 54.7492 70.595 54.9896 69.5566 55.2012C68.5373 55.3935 67.345 55.4896 65.9796 55.4896ZM80.6578 47.6723L78.1194 36.7685L81.5809 34.4608L85.0136 36.7973L82.3886 47.6723H80.6578ZM81.2924 56.6435L77.5424 52.8935L81.2924 49.1435L85.0424 52.8935L81.2924 56.6435Z" fill="white"/>
<rect x="16.8274" y="58.2922" width="66.3461" height="15.1442" stroke="white" stroke-width="0.721154"/>
<path d="M25.809 64.0375L24.5282 62.9298L25.809 61.8307L27.0898 62.9298L25.809 64.0375ZM24.8484 68.373V65.5086L24.6667 64.8163L24.8398 64.2884H26.7523V68.373H24.8484ZM27.6051 68.373V65.7682L27.432 64.8163L27.7003 64.2884H29.3359V64.6605L29.4137 64.7125C29.4772 64.6548 29.5637 64.5884 29.6734 64.5134C29.7887 64.4327 29.9272 64.3605 30.0887 64.2971C30.2503 64.2336 30.432 64.2019 30.6339 64.2019C31.107 64.2019 31.4561 64.349 31.6811 64.6432C31.9061 64.9375 32.0186 65.35 32.0186 65.8807V66.9884L32.1916 67.8538L32.0186 68.373H30.1061V66.1836C30.1061 66.0105 30.0657 65.8836 29.9849 65.8029C29.9099 65.7163 29.7801 65.673 29.5955 65.673L29.5089 65.7596V68.373H27.6051ZM36.7565 68.4596C36.2488 68.4596 35.8767 68.3557 35.6401 68.148C35.4036 67.9404 35.2853 67.6375 35.2853 67.2394V65.6125H34.567V64.5307L35.1988 64.1067L35.8132 63.0336H37.1805V64.2884H38.4786V65.673H37.1805V67.0057L38.4786 66.9971V68.2C38.4786 68.2 38.4267 68.2144 38.3228 68.2432C38.219 68.2663 38.0805 68.2952 37.9074 68.3298C37.7401 68.3644 37.5555 68.3932 37.3536 68.4163C37.1517 68.4452 36.9526 68.4596 36.7565 68.4596ZM39.2071 68.373V63.6307L39.034 62.7654L39.2071 62.2461H41.111V63.648L41.0244 64.6086L41.111 64.6519C41.1398 64.623 41.2033 64.574 41.3014 64.5048C41.3994 64.4298 41.5292 64.3605 41.6908 64.2971C41.8523 64.2279 42.034 64.1932 42.236 64.1932C42.7552 64.1932 43.1158 64.3404 43.3177 64.6346C43.5196 64.9288 43.6206 65.3413 43.6206 65.8721V66.9971L43.8023 67.8452L43.6206 68.373H41.7081V66.1836C41.7081 65.999 41.6706 65.8692 41.5956 65.7942C41.5206 65.7134 41.3879 65.673 41.1975 65.673L41.111 65.7596V68.373H39.2071ZM46.5661 68.4596C46.1219 68.4596 45.7181 68.3961 45.3546 68.2692C44.9969 68.1365 44.7113 67.9173 44.4979 67.6115C44.2902 67.3 44.1863 66.873 44.1863 66.3307C44.1863 65.95 44.2498 65.624 44.3767 65.3529C44.5094 65.0817 44.6854 64.8625 44.9046 64.6952C45.1238 64.5221 45.369 64.398 45.6402 64.323C45.9113 64.2423 46.1911 64.2019 46.4796 64.2019C46.8431 64.2019 47.1459 64.225 47.3883 64.2711C47.6363 64.3173 47.8354 64.3692 47.9854 64.4269C48.1354 64.4846 48.2508 64.5365 48.3315 64.5827L48.7642 65.9586L48.5911 66.4952H46.0815C46.1046 66.6567 46.1883 66.7952 46.3325 66.9105C46.4767 67.0202 46.7277 67.075 47.0854 67.075C47.4258 67.075 47.7084 67.0375 47.9334 66.9625C48.1584 66.8875 48.32 66.8298 48.4181 66.7894V68.1221C48.3027 68.1855 48.144 68.2432 47.9421 68.2952C47.7402 68.3471 47.5181 68.3875 47.2758 68.4163C47.0392 68.4452 46.8027 68.4596 46.5661 68.4596ZM46.0556 65.9327L46.9383 65.7682L46.8604 65.4913C46.7796 65.4452 46.6815 65.4221 46.5661 65.4221C46.3758 65.4221 46.2402 65.474 46.1594 65.5779C46.0844 65.6817 46.0498 65.8 46.0556 65.9327ZM51.4963 68.373V63.6307L51.3146 62.7654L51.4963 62.2461H53.4175V63.6307L53.3223 65.8721H53.4867L53.9713 64.2884H56.0829V64.8077L55.1223 66.123L55.7627 66.9884L56.5761 67.8625V68.373H54.5511L53.7463 66.9452L53.4175 67.0317V68.373H51.4963ZM57.1837 68.373V65.7682L57.0106 64.8163L57.2789 64.2884H58.9144V64.6605L58.9923 64.7125C59.0558 64.6548 59.1423 64.5884 59.2519 64.5134C59.3673 64.4327 59.5058 64.3605 59.6673 64.2971C59.8289 64.2336 60.0106 64.2019 60.2125 64.2019C60.6856 64.2019 61.0346 64.349 61.2596 64.6432C61.4846 64.9375 61.5971 65.35 61.5971 65.8807V66.9884L61.7702 67.8538L61.5971 68.373H59.6846V66.1836C59.6846 66.0105 59.6442 65.8836 59.5635 65.8029C59.4885 65.7163 59.3587 65.673 59.174 65.673L59.0875 65.7596V68.373H57.1837ZM64.4551 68.4596C63.7513 68.4596 63.1917 68.2923 62.7763 67.9577C62.3609 67.623 62.1532 67.0807 62.1532 66.3307C62.1532 65.575 62.3609 65.0327 62.7763 64.7038C63.1917 64.3692 63.7513 64.2019 64.4551 64.2019C65.182 64.2019 65.7445 64.3692 66.1426 64.7038C66.5407 65.0327 66.7397 65.575 66.7397 66.3307C66.7397 67.0807 66.5407 67.623 66.1426 67.9577C65.7445 68.2923 65.182 68.4596 64.4551 68.4596ZM64.4551 67.075C64.5647 67.075 64.6542 67.0317 64.7234 66.9452C64.7926 66.8529 64.8272 66.648 64.8272 66.3307C64.8272 66.0077 64.7926 65.8029 64.7234 65.7163C64.6599 65.6298 64.5705 65.5865 64.4551 65.5865C64.3455 65.5865 64.2532 65.6298 64.1782 65.7163C64.1032 65.8029 64.0657 66.0077 64.0657 66.3307C64.0657 66.648 64.1032 66.8529 64.1782 66.9452C64.2532 67.0317 64.3455 67.075 64.4551 67.075ZM68.1917 68.373L67.0061 65.4134L66.833 64.2884H68.8234L69.2128 66.8154H69.3859L69.9571 64.2884H71.8523L72.4148 66.8154H72.5878L72.9859 64.2884H74.9677L74.7946 65.4134L73.6003 68.373H71.4369L70.9869 65.7596H70.8138L70.3552 68.373H68.1917Z" fill="white"/>
</svg>
