<svg width="168" height="106" viewBox="0 0 168 106" fill="none" xmlns="http://www.w3.org/2000/svg">
<path d="M16.8958 64V45.3697L0.963636 22.3709V18.5164H17.0885L23.5127 31.7503H24.7976L31.1576 18.5164H47.2182V22.3709L30.8364 45.7552L31.2218 52.2436V64H16.8958ZM65.0776 64V45.3697L49.1455 22.3709V18.5164H65.2703L71.6945 31.7503H72.9794L79.3394 18.5164H95.4V22.3709L79.0182 45.7552L79.4036 52.2436V64H65.0776ZM119.103 64.6424C116.148 64.6424 113.278 64.2998 110.494 63.6145C107.753 62.9293 105.291 61.7301 103.107 60.017C100.922 58.3038 99.1878 55.9269 97.9029 52.8861C96.6181 49.8453 95.9757 45.9693 95.9757 41.2582C95.9757 37.0182 96.5967 33.4206 97.8387 30.4655C99.0807 27.4675 100.772 25.0477 102.914 23.2061C105.055 21.3644 107.518 20.0154 110.302 19.1588C113.086 18.3022 116.019 17.8739 119.103 17.8739C121.287 17.8739 123.407 18.0452 125.463 18.3879C127.562 18.7305 129.082 19.116 130.024 19.5442L137.797 26.0327L131.373 36.6327L119.103 30.9794C117.647 30.9794 116.276 31.3863 114.991 32.2C113.749 32.9709 112.722 34.1273 111.908 35.6691C111.137 37.1681 110.751 39.0311 110.751 41.2582C110.751 44.0848 111.18 46.2691 112.036 47.8109C112.936 49.3099 114.199 50.3378 115.827 50.8945C117.497 51.4513 119.467 51.7297 121.737 51.7297C123.921 51.7297 125.977 51.5156 127.904 51.0873C129.874 50.6162 131.609 50.0808 133.108 49.4812C134.607 48.8816 135.742 48.3677 136.513 47.9394V60.7879C135.656 61.2162 134.435 61.7515 132.851 62.3939C131.309 62.9935 129.382 63.5289 127.069 64C124.799 64.4283 122.144 64.6424 119.103 64.6424ZM151.792 47.2327L146.139 22.9491L153.848 17.8097L161.493 23.0133L155.647 47.2327H151.792ZM153.206 67.2121L144.854 58.8606L153.206 50.5091L161.557 58.8606L153.206 67.2121Z" fill="white"/>
<rect x="9.63604" y="71.469" width="147.758" height="33.7273" stroke="white" stroke-width="1.60606"/>
<path d="M29.6405 83.2233L26.7881 80.7564L29.6405 78.3087L32.4928 80.7564L29.6405 83.2233ZM27.5012 92.8789V86.4996L27.0965 84.9578L27.4819 83.7822H31.7412V92.8789H27.5012ZM33.6405 92.8789V87.0778L33.255 84.9578L33.8525 83.7822H37.495V84.6109L37.6685 84.7265C37.8098 84.5981 38.0025 84.4503 38.2467 84.2833C38.5036 84.1034 38.812 83.9428 39.1717 83.8015C39.5315 83.6601 39.9362 83.5895 40.3859 83.5895C41.4395 83.5895 42.2168 83.9171 42.7179 84.5724C43.219 85.2276 43.4696 86.1463 43.4696 87.3284V89.7953L43.855 91.7225L43.4696 92.8789H39.2103V88.0029C39.2103 87.6175 39.1204 87.3348 38.9405 87.1549C38.7734 86.9622 38.4844 86.8658 38.0732 86.8658L37.8805 87.0585V92.8789H33.6405ZM54.0212 93.0716C52.8906 93.0716 52.0618 92.8404 51.535 92.3778C51.0083 91.9153 50.7449 91.2407 50.7449 90.3542V86.7309H49.1452V84.3218L50.5521 83.3775L51.9205 80.9876H54.9656V83.7822H57.8565V86.8658H54.9656V89.8338L57.8565 89.8145V92.4935C57.8565 92.4935 57.7409 92.5256 57.5096 92.5898C57.2783 92.6412 56.97 92.7055 56.5845 92.7825C56.2119 92.8596 55.8007 92.9239 55.351 92.9753C54.9014 93.0395 54.4581 93.0716 54.0212 93.0716ZM59.479 92.8789V82.3175L59.0936 80.3902L59.479 79.2338H63.719V82.356L63.5263 84.4953L63.719 84.5916C63.7833 84.5274 63.9246 84.4182 64.143 84.264C64.3614 84.097 64.6505 83.9428 65.0103 83.8015C65.3701 83.6473 65.7748 83.5702 66.2245 83.5702C67.3808 83.5702 68.1839 83.8978 68.6336 84.5531C69.0833 85.2084 69.3081 86.127 69.3081 87.3091V89.8145L69.7128 91.7033L69.3081 92.8789H65.0488V88.0029C65.0488 87.5918 64.9653 87.3027 64.7983 87.1356C64.6313 86.9558 64.3358 86.8658 63.9118 86.8658L63.719 87.0585V92.8789H59.479ZM75.8681 93.0716C74.8787 93.0716 73.9793 92.9303 73.1699 92.6476C72.3733 92.3521 71.7373 91.8639 71.2619 91.1829C70.7993 90.4891 70.5681 89.5383 70.5681 88.3305C70.5681 87.4825 70.7094 86.7566 70.9921 86.1527C71.2876 85.5488 71.6795 85.0606 72.1677 84.688C72.6559 84.3025 73.202 84.0263 73.8059 83.8593C74.4098 83.6794 75.0329 83.5895 75.6753 83.5895C76.4848 83.5895 77.1593 83.6408 77.699 83.7436C78.2515 83.8464 78.6947 83.9621 79.0288 84.0905C79.3629 84.219 79.6198 84.3347 79.7997 84.4375L80.7633 87.5018L80.3779 88.6967H74.7888C74.8402 89.0565 75.0265 89.3648 75.3477 89.6218C75.6689 89.8659 76.2278 89.988 77.0244 89.988C77.7825 89.988 78.4121 89.9045 78.9132 89.7375C79.4142 89.5704 79.774 89.4419 79.9924 89.352V92.32C79.7355 92.4613 79.3821 92.5898 78.9324 92.7055C78.4827 92.8211 77.9881 92.911 77.4484 92.9753C76.9216 93.0395 76.3949 93.0716 75.8681 93.0716ZM74.731 87.444L76.6968 87.0778L76.5233 86.4611C76.3435 86.3583 76.125 86.3069 75.8681 86.3069C75.4441 86.3069 75.1421 86.4225 74.9622 86.6538C74.7952 86.8851 74.7181 87.1485 74.731 87.444ZM86.848 92.8789V82.3175L86.4432 80.3902L86.848 79.2338H91.1265V82.3175L90.9145 87.3091H91.2807L92.36 83.7822H97.0625V84.9385L94.9232 87.868L96.3494 89.7953L98.161 91.7418V92.8789H93.6512L91.8589 89.6989L91.1265 89.8916V92.8789H86.848ZM99.514 92.8789V87.0778L99.1286 84.9578L99.726 83.7822H103.369V84.6109L103.542 84.7265C103.683 84.5981 103.876 84.4503 104.12 84.2833C104.377 84.1034 104.686 83.9428 105.045 83.8015C105.405 83.6601 105.81 83.5895 106.259 83.5895C107.313 83.5895 108.09 83.9171 108.591 84.5724C109.093 85.2276 109.343 86.1463 109.343 87.3284V89.7953L109.729 91.7225L109.343 92.8789H105.084V88.0029C105.084 87.6175 104.994 87.3348 104.814 87.1549C104.647 86.9622 104.358 86.8658 103.947 86.8658L103.754 87.0585V92.8789H99.514ZM115.708 93.0716C114.141 93.0716 112.894 92.699 111.969 91.9538C111.044 91.2086 110.582 90.0008 110.582 88.3305C110.582 86.6474 111.044 85.4396 111.969 84.7073C112.894 83.9621 114.141 83.5895 115.708 83.5895C117.327 83.5895 118.58 83.9621 119.466 84.7073C120.353 85.4396 120.796 86.6474 120.796 88.3305C120.796 90.0008 120.353 91.2086 119.466 91.9538C118.58 92.699 117.327 93.0716 115.708 93.0716ZM115.708 89.988C115.952 89.988 116.151 89.8916 116.306 89.6989C116.46 89.4933 116.537 89.0372 116.537 88.3305C116.537 87.611 116.46 87.1549 116.306 86.9622C116.164 86.7695 115.965 86.6731 115.708 86.6731C115.464 86.6731 115.258 86.7695 115.091 86.9622C114.924 87.1549 114.841 87.611 114.841 88.3305C114.841 89.0372 114.924 89.4933 115.091 89.6989C115.258 89.8916 115.464 89.988 115.708 89.988ZM124.03 92.8789L121.389 86.2876L121.004 83.7822H125.437L126.304 89.4098H126.689L127.961 83.7822H132.182L133.435 89.4098H133.82L134.707 83.7822H139.12L138.735 86.2876L136.075 92.8789H131.257L130.255 87.0585H129.869L128.848 92.8789H124.03Z" fill="white"/>
</svg>
