<svg width="83" height="54" viewBox="0 0 83 54" fill="none" xmlns="http://www.w3.org/2000/svg">
<path d="M8.79462 31.9805V22.8343L0.973077 11.5435V9.65124H8.88923L12.0431 16.1482H12.6738L15.7962 9.65124H23.6808V11.5435L15.6385 23.0235L15.8277 26.2089V31.9805H8.79462ZM32.4485 31.9805V22.8343L24.6269 11.5435V9.65124H32.5431L35.6969 16.1482H36.3277L39.45 9.65124H47.3346V11.5435L39.2923 23.0235L39.4815 26.2089V31.9805H32.4485ZM58.9711 32.2959C57.5203 32.2959 56.1116 32.1276 54.7449 31.7912C53.3993 31.4548 52.1903 30.8661 51.118 30.0251C50.0457 29.1841 49.1942 28.0171 48.5634 26.5243C47.9326 25.0315 47.6172 23.1287 47.6172 20.8159C47.6172 18.7343 47.9221 16.9682 48.5318 15.5174C49.1416 14.0456 49.9721 12.8576 51.0234 11.9535C52.0747 11.0494 53.2836 10.3871 54.6503 9.96662C56.017 9.54611 57.4572 9.33585 58.9711 9.33585C60.0434 9.33585 61.0842 9.41995 62.0934 9.58816C63.1236 9.75636 63.8701 9.94559 64.3326 10.1559L68.1488 13.3412L64.9949 18.5451L58.9711 15.7697C58.2562 15.7697 57.5834 15.9694 56.9526 16.3689C56.3429 16.7474 55.8383 17.3151 55.4388 18.072C55.0603 18.8079 54.8711 19.7225 54.8711 20.8159C54.8711 22.2035 55.0813 23.2759 55.5018 24.0328C55.9434 24.7687 56.5636 25.2733 57.3626 25.5466C58.1826 25.82 59.1498 25.9566 60.2642 25.9566C61.3365 25.9566 62.3457 25.8515 63.2918 25.6412C64.259 25.41 65.1106 25.1471 65.8465 24.8528C66.5824 24.5584 67.1395 24.3061 67.518 24.0959V30.4035C67.0975 30.6138 66.4983 30.8766 65.7203 31.192C64.9634 31.4864 64.0172 31.7492 62.8818 31.9805C61.7675 32.1907 60.4639 32.2959 58.9711 32.2959ZM75.0192 23.7489L72.2438 11.8274L76.0285 9.30431L79.7815 11.8589L76.9115 23.7489H75.0192ZM75.7131 33.5574L71.6131 29.4574L75.7131 25.3574L79.8131 29.4574L75.7131 33.5574Z" fill="#007BFF"/>
<rect x="5.23114" y="36.0661" width="72.5385" height="16.5577" stroke="#007BFF" stroke-width="0.788462"/>
<path d="M15.052 42.5078L13.6517 41.2967L15.052 40.0951L16.4523 41.2967L15.052 42.5078ZM14.0018 47.248V44.1163L13.8031 43.3594L13.9923 42.7822H16.0833V47.248H14.0018ZM17.0157 47.248V44.4001L16.8265 43.3594L17.1198 42.7822H18.908V43.189L18.9932 43.2458C19.0626 43.1827 19.1572 43.1102 19.277 43.0282C19.4032 42.9399 19.5546 42.861 19.7312 42.7917C19.9078 42.7223 20.1065 42.6876 20.3272 42.6876C20.8445 42.6876 21.2261 42.8484 21.4721 43.1701C21.7181 43.4918 21.8411 43.9428 21.8411 44.5231V45.7342L22.0303 46.6804L21.8411 47.248H19.7501V44.8543C19.7501 44.665 19.7059 44.5263 19.6176 44.438C19.5356 44.3434 19.3937 44.296 19.1919 44.296L19.0972 44.3907V47.248H17.0157ZM27.0212 47.3427C26.4661 47.3427 26.0593 47.2291 25.8007 47.002C25.5421 46.775 25.4128 46.4438 25.4128 46.0086V44.2298H24.6274V43.0471L25.3181 42.5835L25.9899 41.4103H27.4848V42.7822H28.9041V44.296H27.4848V45.7531L28.9041 45.7437V47.0588C28.9041 47.0588 28.8473 47.0746 28.7338 47.1061C28.6202 47.1314 28.4688 47.1629 28.2796 47.2007C28.0967 47.2386 27.8948 47.2701 27.6741 47.2954C27.4533 47.3269 27.2357 47.3427 27.0212 47.3427ZM29.7006 47.248V42.0631L29.5114 41.117L29.7006 40.5493H31.7821V42.082L31.6875 43.1323L31.7821 43.1796C31.8137 43.148 31.8831 43.0944 31.9903 43.0187C32.0975 42.9367 32.2394 42.861 32.4161 42.7917C32.5927 42.716 32.7914 42.6781 33.0121 42.6781C33.5798 42.6781 33.9741 42.839 34.1948 43.1607C34.4156 43.4824 34.526 43.9334 34.526 44.5137V45.7437L34.7247 46.6709L34.526 47.248H32.435V44.8543C32.435 44.6524 32.394 44.5105 32.312 44.4285C32.23 44.3402 32.0849 44.296 31.8768 44.296L31.7821 44.3907V47.248H29.7006ZM37.7465 47.3427C37.2608 47.3427 36.8192 47.2733 36.4218 47.1345C36.0308 46.9894 35.7185 46.7497 35.4851 46.4154C35.2581 46.0748 35.1445 45.608 35.1445 45.0151C35.1445 44.5988 35.2139 44.2424 35.3527 43.946C35.4978 43.6495 35.6901 43.4098 35.9298 43.2269C36.1695 43.0377 36.4376 42.902 36.7341 42.82C37.0305 42.7317 37.3365 42.6876 37.6518 42.6876C38.0492 42.6876 38.3804 42.7128 38.6453 42.7633C38.9165 42.8137 39.1341 42.8705 39.2981 42.9336C39.4621 42.9967 39.5883 43.0534 39.6766 43.1039L40.1497 44.6083L39.9605 45.1949H37.2166C37.2418 45.3715 37.3333 45.5229 37.491 45.649C37.6487 45.7689 37.9231 45.8288 38.3141 45.8288C38.6863 45.8288 38.9954 45.7878 39.2414 45.7058C39.4874 45.6238 39.664 45.5607 39.7712 45.5166V46.9737C39.6451 47.043 39.4716 47.1061 39.2508 47.1629C39.0301 47.2197 38.7872 47.2638 38.5223 47.2954C38.2637 47.3269 38.0051 47.3427 37.7465 47.3427ZM37.1882 44.5799L38.1533 44.4001L38.0681 44.0974C37.9798 44.0469 37.8726 44.0217 37.7465 44.0217C37.5383 44.0217 37.3901 44.0784 37.3018 44.192C37.2198 44.3055 37.1819 44.4348 37.1882 44.5799ZM43.1368 47.248V42.0631L42.9381 41.117L43.1368 40.5493H45.2373V42.0631L45.1332 44.5137H45.313L45.8428 42.7822H48.1514V43.3499L47.1012 44.788L47.8013 45.7342L48.6907 46.6898V47.248H46.4767L45.5968 45.6869L45.2373 45.7815V47.248H43.1368ZM49.355 47.248V44.4001L49.1657 43.3594L49.459 42.7822H51.2473V43.189L51.3324 43.2458C51.4018 43.1827 51.4964 43.1102 51.6163 43.0282C51.7424 42.9399 51.8938 42.861 52.0704 42.7917C52.247 42.7223 52.4457 42.6876 52.6665 42.6876C53.1837 42.6876 53.5653 42.8484 53.8113 43.1701C54.0573 43.4918 54.1803 43.9428 54.1803 44.5231V45.7342L54.3696 46.6804L54.1803 47.248H52.0893V44.8543C52.0893 44.665 52.0452 44.5263 51.9569 44.438C51.8749 44.3434 51.733 44.296 51.5311 44.296L51.4365 44.3907V47.248H49.355ZM57.3051 47.3427C56.5355 47.3427 55.9237 47.1597 55.4695 46.7939C55.0154 46.428 54.7883 45.8351 54.7883 45.0151C54.7883 44.1888 55.0154 43.5959 55.4695 43.2364C55.9237 42.8705 56.5355 42.6876 57.3051 42.6876C58.0999 42.6876 58.7149 42.8705 59.1501 43.2364C59.5853 43.5959 59.8029 44.1888 59.8029 45.0151C59.8029 45.8351 59.5853 46.428 59.1501 46.7939C58.7149 47.1597 58.0999 47.3427 57.3051 47.3427ZM57.3051 45.8288C57.4249 45.8288 57.5227 45.7815 57.5984 45.6869C57.6741 45.586 57.7119 45.362 57.7119 45.0151C57.7119 44.6619 57.6741 44.438 57.5984 44.3434C57.529 44.2487 57.4312 44.2014 57.3051 44.2014C57.1852 44.2014 57.0843 44.2487 57.0023 44.3434C56.9203 44.438 56.8793 44.6619 56.8793 45.0151C56.8793 45.362 56.9203 45.586 57.0023 45.6869C57.0843 45.7815 57.1852 45.8288 57.3051 45.8288ZM61.3904 47.248L60.0942 44.0122L59.9049 42.7822H62.0811L62.5069 45.545H62.6961L63.3206 42.7822H65.3926L66.0076 45.545H66.1969L66.6321 42.7822H68.7988L68.6096 44.0122L67.3039 47.248H64.9385L64.4465 44.3907H64.2572L63.7558 47.248H61.3904Z" fill="#007BFF"/>
</svg>
