<svg width="16" height="13" viewBox="0 0 16 13" fill="none" xmlns="http://www.w3.org/2000/svg">
<path d="M14.3352 0.66802H12.5574V2.00135C12.5574 2.12976 12.5321 2.2569 12.483 2.37553C12.4338 2.49416 12.3618 2.60195 12.271 2.69275C12.1802 2.78354 12.0724 2.85556 11.9538 2.9047C11.8352 2.95384 11.708 2.97913 11.5796 2.97913C11.4512 2.97913 11.3241 2.95384 11.2054 2.9047C11.0868 2.85556 10.979 2.78354 10.8882 2.69275C10.7974 2.60195 10.7254 2.49416 10.6763 2.37553C10.6271 2.2569 10.6019 2.12976 10.6019 2.00135V0.66802H5.42407V2.00135C5.42407 2.26068 5.32106 2.50938 5.13769 2.69275C4.95432 2.87612 4.70562 2.97913 4.4463 2.97913C4.18697 2.97913 3.93827 2.87612 3.7549 2.69275C3.57153 2.50938 3.46852 2.26068 3.46852 2.00135V0.66802H1.69074C1.58497 0.666816 1.48004 0.686835 1.38214 0.726892C1.28425 0.766949 1.19538 0.826231 1.12079 0.901231C1.0462 0.976232 0.987415 1.06543 0.947901 1.16354C0.908387 1.26166 0.88895 1.36671 0.890739 1.47246V11.4191C0.888973 11.523 0.907692 11.6262 0.945826 11.7229C0.98396 11.8196 1.04076 11.9078 1.11299 11.9825C1.18522 12.0572 1.27145 12.1169 1.36677 12.1583C1.46209 12.1997 1.56462 12.2218 1.66852 12.2236H14.3352C14.4391 12.2218 14.5416 12.1997 14.6369 12.1583C14.7323 12.1169 14.8185 12.0572 14.8907 11.9825C14.9629 11.9078 15.0197 11.8196 15.0579 11.7229C15.096 11.6262 15.1147 11.523 15.113 11.4191V1.47246C15.1147 1.36857 15.096 1.26535 15.0579 1.16869C15.0197 1.07203 14.9629 0.983829 14.8907 0.909127C14.8185 0.834424 14.7323 0.774682 14.6369 0.733312C14.5416 0.691943 14.4391 0.669756 14.3352 0.66802ZM4.4463 9.55691H3.55741V8.66802H4.4463V9.55691ZM4.4463 7.33469H3.55741V6.4458H4.4463V7.33469ZM4.4463 5.11246H3.55741V4.22358H4.4463V5.11246ZM7.11296 9.55691H6.22407V8.66802H7.11296V9.55691ZM7.11296 7.33469H6.22407V6.4458H7.11296V7.33469ZM7.11296 5.11246H6.22407V4.22358H7.11296V5.11246ZM9.77963 9.55691H8.89074V8.66802H9.77963V9.55691ZM9.77963 7.33469H8.89074V6.4458H9.77963V7.33469ZM9.77963 5.11246H8.89074V4.22358H9.77963V5.11246ZM12.4463 9.55691H11.5574V8.66802H12.4463V9.55691ZM12.4463 7.33469H11.5574V6.4458H12.4463V7.33469ZM12.4463 5.11246H11.5574V4.22358H12.4463V5.11246Z" fill="#545454"/>
</svg>
