<svg width="13" height="12" viewBox="0 0 13 12" fill="none" xmlns="http://www.w3.org/2000/svg">
<path d="M3.9038 0C4.01519 0 4.12202 0.0442499 4.20079 0.123015C4.27955 0.20178 4.3238 0.308609 4.3238 0.42V1.2054H8.834V0.4254C8.834 0.314009 8.87825 0.20718 8.95702 0.128415C9.03578 0.0496499 9.14261 0.0054 9.254 0.0054C9.36539 0.0054 9.47222 0.0496499 9.55099 0.128415C9.62975 0.20718 9.674 0.314009 9.674 0.4254V1.2054H11.3C11.6182 1.2054 11.9233 1.33175 12.1483 1.55666C12.3733 1.78157 12.4998 2.08664 12.5 2.4048V10.8006C12.4998 11.1188 12.3733 11.4238 12.1483 11.6487C11.9233 11.8737 11.6182 12 11.3 12H1.7C1.38184 12 1.07671 11.8737 0.851684 11.6487C0.626658 11.4238 0.500159 11.1188 0.5 10.8006V2.4048C0.500159 2.08664 0.626658 1.78157 0.851684 1.55666C1.07671 1.33175 1.38184 1.2054 1.7 1.2054H3.4838V0.4194C3.48396 0.308113 3.52828 0.201439 3.60703 0.122803C3.68578 0.0441674 3.79251 -1.13558e-07 3.9038 0ZM1.34 4.6452V10.8006C1.34 10.8479 1.34931 10.8947 1.3674 10.9384C1.3855 10.982 1.41201 11.0217 1.44544 11.0552C1.47887 11.0886 1.51856 11.1151 1.56223 11.1332C1.60591 11.1513 1.65272 11.1606 1.7 11.1606H11.3C11.3473 11.1606 11.3941 11.1513 11.4378 11.1332C11.4814 11.1151 11.5211 11.0886 11.5546 11.0552C11.588 11.0217 11.6145 10.982 11.6326 10.9384C11.6507 10.8947 11.66 10.8479 11.66 10.8006V4.6536L1.34 4.6452ZM4.5002 8.7714V9.771H3.5V8.7714H4.5002ZM6.9998 8.7714V9.771H6.0002V8.7714H6.9998ZM9.5 8.7714V9.771H8.4998V8.7714H9.5ZM4.5002 6.3852V7.3848H3.5V6.3852H4.5002ZM6.9998 6.3852V7.3848H6.0002V6.3852H6.9998ZM9.5 6.3852V7.3848H8.4998V6.3852H9.5ZM3.4838 2.0448H1.7C1.65272 2.0448 1.60591 2.05411 1.56223 2.0722C1.51856 2.0903 1.47887 2.11681 1.44544 2.15024C1.41201 2.18367 1.3855 2.22336 1.3674 2.26703C1.34931 2.31071 1.34 2.35752 1.34 2.4048V3.8058L11.66 3.8142V2.4048C11.66 2.35752 11.6507 2.31071 11.6326 2.26703C11.6145 2.22336 11.588 2.18367 11.5546 2.15024C11.5211 2.11681 11.4814 2.0903 11.4378 2.0722C11.3941 2.05411 11.3473 2.0448 11.3 2.0448H9.674V2.6022C9.674 2.71359 9.62975 2.82042 9.55099 2.89919C9.47222 2.97795 9.36539 3.0222 9.254 3.0222C9.14261 3.0222 9.03578 2.97795 8.95702 2.89919C8.87825 2.82042 8.834 2.71359 8.834 2.6022V2.0448H4.3238V2.5968C4.3238 2.70819 4.27955 2.81502 4.20079 2.89378C4.12202 2.97255 4.01519 3.0168 3.9038 3.0168C3.79241 3.0168 3.68558 2.97255 3.60682 2.89378C3.52805 2.81502 3.4838 2.70819 3.4838 2.5968V2.0448Z" fill="#151515"/>
</svg>
