<svg width="12" height="18" viewBox="0 0 12 18" fill="none" xmlns="http://www.w3.org/2000/svg">
<path d="M6 0C2.68762 0 0 2.59192 0 5.78571C0 10.9286 6 18 6 18C6 18 12 10.9286 12 5.78571C12 2.59192 9.31238 0 6 0ZM6 9C5.52533 9 5.06131 8.84919 4.66663 8.56664C4.27195 8.28408 3.96434 7.88248 3.78269 7.41261C3.60104 6.94275 3.55351 6.42572 3.64612 5.92691C3.73872 5.4281 3.9673 4.96992 4.30294 4.6103C4.63859 4.25068 5.06623 4.00577 5.53178 3.90655C5.99734 3.80733 6.4799 3.85826 6.91844 4.05288C7.35698 4.24751 7.73181 4.57709 7.99553 4.99996C8.25924 5.42283 8.4 5.91999 8.4 6.42857C8.39931 7.11033 8.14623 7.76395 7.69629 8.24602C7.24635 8.7281 6.63631 8.99926 6 9Z" fill="#545454"/>
</svg>
