<svg width="13" height="18" viewBox="0 0 13 18" fill="none" xmlns="http://www.w3.org/2000/svg">
<path d="M6.5 0C3.18762 0 0.5 2.59192 0.5 5.78571C0.5 10.9286 6.5 18 6.5 18C6.5 18 12.5 10.9286 12.5 5.78571C12.5 2.59192 9.81238 0 6.5 0ZM6.5 9C6.02533 9 5.56131 8.84919 5.16663 8.56664C4.77195 8.28408 4.46434 7.88248 4.28269 7.41261C4.10104 6.94275 4.05351 6.42572 4.14612 5.92691C4.23872 5.4281 4.4673 4.96992 4.80294 4.6103C5.13859 4.25068 5.56623 4.00577 6.03178 3.90655C6.49734 3.80733 6.9799 3.85826 7.41844 4.05288C7.85698 4.24751 8.23181 4.57709 8.49553 4.99996C8.75924 5.42283 8.9 5.91999 8.9 6.42857C8.89931 7.11033 8.64623 7.76395 8.19629 8.24602C7.74635 8.7281 7.13631 8.99926 6.5 9Z" fill="#4362BE"/>
</svg>
