<svg width="9" height="12" viewBox="0 0 9 12" fill="none" xmlns="http://www.w3.org/2000/svg">
<path d="M4.5 0C2.29175 0 0.5 1.72795 0.5 3.85714C0.5 7.28571 4.5 12 4.5 12C4.5 12 8.5 7.28571 8.5 3.85714C8.5 1.72795 6.70825 0 4.5 0ZM4.5 6C4.18355 6 3.87421 5.89946 3.61109 5.71109C3.34797 5.52272 3.14289 5.25499 3.02179 4.94174C2.90069 4.6285 2.86901 4.28381 2.93074 3.95127C2.99248 3.61873 3.14487 3.31328 3.36863 3.07353C3.59239 2.83378 3.87749 2.67051 4.18786 2.60437C4.49823 2.53822 4.81993 2.57217 5.11229 2.70192C5.40465 2.83167 5.65454 3.0514 5.83035 3.33331C6.00616 3.61522 6.1 3.94666 6.1 4.28571C6.09954 4.74022 5.93082 5.17597 5.63086 5.49735C5.3309 5.81873 4.9242 5.9995 4.5 6Z" fill="#151515"/>
</svg>
