<svg width="37" height="27" viewBox="0 0 37 27" fill="none" xmlns="http://www.w3.org/2000/svg">
<path fill-rule="evenodd" clip-rule="evenodd" d="M37 13.5C37 13.033 36.8114 12.5851 36.4756 12.2549C36.1399 11.9247 35.6845 11.7391 35.2097 11.7391H1.79032C1.3155 11.7391 0.860124 11.9247 0.524373 12.2549C0.188623 12.5851 0 13.033 0 13.5C0 13.967 0.188623 14.4149 0.524373 14.7451C0.860124 15.0753 1.3155 15.2609 1.79032 15.2609H35.2097C35.6845 15.2609 36.1399 15.0753 36.4756 14.7451C36.8114 14.4149 37 13.967 37 13.5ZM37 1.76087C37 1.29386 36.8114 0.845974 36.4756 0.515747C36.1399 0.185519 35.6845 0 35.2097 0H1.79032C1.3155 0 0.860124 0.185519 0.524373 0.515747C0.188623 0.845974 0 1.29386 0 1.76087C0 2.22788 0.188623 2.67577 0.524373 3.00599C0.860124 3.33622 1.3155 3.52174 1.79032 3.52174H35.2097C35.6845 3.52174 36.1399 3.33622 36.4756 3.00599C36.8114 2.67577 37 2.22788 37 1.76087ZM37 25.2391C37 24.7721 36.8114 24.3242 36.4756 23.994C36.1399 23.6638 35.6845 23.4783 35.2097 23.4783H1.79032C1.3155 23.4783 0.860124 23.6638 0.524373 23.994C0.188623 24.3242 0 24.7721 0 25.2391C0 25.7061 0.188623 26.154 0.524373 26.4843C0.860124 26.8145 1.3155 27 1.79032 27H35.2097C35.6845 27 36.1399 26.8145 36.4756 26.4843C36.8114 26.154 37 25.7061 37 25.2391Z" fill="#151515"/>
</svg>
