<svg width="9" height="11" viewBox="0 0 9 11" fill="none" xmlns="http://www.w3.org/2000/svg">
<path d="M8 4.5C8.13261 4.5 8.25979 4.55268 8.35355 4.64645C8.44732 4.74021 8.5 4.86739 8.5 5C8.50011 5.97426 8.14464 6.91506 7.50031 7.64583C6.85598 8.37661 5.9671 8.8471 5.0005 8.969L5 10H6.5C6.63261 10 6.75979 10.0527 6.85355 10.1464C6.94732 10.2402 7 10.3674 7 10.5C7 10.6326 6.94732 10.7598 6.85355 10.8536C6.75979 10.9473 6.63261 11 6.5 11H2.5C2.36739 11 2.24021 10.9473 2.14645 10.8536C2.05268 10.7598 2 10.6326 2 10.5C2 10.3674 2.05268 10.2402 2.14645 10.1464C2.24021 10.0527 2.36739 10 2.5 10H4V8.969C3.03331 8.84721 2.1443 8.37677 1.49988 7.64598C0.855449 6.9152 0.499909 5.97434 0.5 5C0.5 4.86739 0.552679 4.74021 0.646447 4.64645C0.740215 4.55268 0.867392 4.5 1 4.5C1.13261 4.5 1.25979 4.55268 1.35355 4.64645C1.44732 4.74021 1.5 4.86739 1.5 5C1.5 5.79565 1.81607 6.55871 2.37868 7.12132C2.94129 7.68393 3.70435 8 4.5 8C5.29565 8 6.05871 7.68393 6.62132 7.12132C7.18393 6.55871 7.5 5.79565 7.5 5C7.5 4.86739 7.55268 4.74021 7.64645 4.64645C7.74021 4.55268 7.86739 4.5 8 4.5ZM4.5 0.5C5.03043 0.5 5.53914 0.710714 5.91421 1.08579C6.28929 1.46086 6.5 1.96957 6.5 2.5V5C6.5 5.53043 6.28929 6.03914 5.91421 6.41421C5.53914 6.78929 5.03043 7 4.5 7C3.96957 7 3.46086 6.78929 3.08579 6.41421C2.71071 6.03914 2.5 5.53043 2.5 5V2.5C2.5 1.96957 2.71071 1.46086 3.08579 1.08579C3.46086 0.710714 3.96957 0.5 4.5 0.5Z" fill="#151515"/>
</svg>
