<svg width="14" height="21" viewBox="0 0 14 21" fill="none" xmlns="http://www.w3.org/2000/svg">
<path d="M4.55017 9.95607C5.3576 9.95549 6.13176 9.62668 6.7025 9.0419C7.27324 8.45712 7.59384 7.66423 7.59384 6.83751C7.59375 6.42812 7.5149 6.02276 7.3618 5.64457C7.2087 5.26638 6.98435 4.92276 6.70155 4.63335C6.41876 4.34393 6.08306 4.11438 5.71361 3.9578C5.34417 3.80122 4.94823 3.72068 4.54839 3.72078C4.14855 3.72087 3.75264 3.8016 3.38327 3.95836C3.0139 4.11511 2.67831 4.34483 2.39564 4.63438C2.11298 4.92393 1.88878 5.26765 1.73586 5.64591C1.58293 6.02418 1.50427 6.42958 1.50436 6.83897C1.50474 7.66581 1.8258 8.45866 2.39696 9.04318C2.96812 9.62771 3.74262 9.95607 4.55017 9.95607ZM6.75909 9.93421C6.12027 10.4196 5.34637 10.6826 4.55088 10.6847C3.75474 10.6825 2.98018 10.4196 2.34054 9.93421C1.80681 10.3896 1.2745 11.0417 0.838981 11.8454C-0.173678 13.7129 -0.285405 15.6285 0.589908 16.1254C0.981309 16.3535 1.39121 16.1837 1.81535 15.7648C1.73656 16.2152 1.69703 16.6719 1.69722 17.1295C1.69722 19.2702 2.50848 21 3.50691 21C4.10895 21 4.40713 20.3697 4.55017 19.4057C4.6925 20.3603 4.99138 21 5.58916 21C6.58332 21 7.40027 19.2695 7.40027 17.1295C7.40027 16.6486 7.35615 16.1895 7.28143 15.7648C7.70699 16.183 8.11689 16.3564 8.50901 16.1262C9.3829 15.6307 9.27046 13.7144 8.2578 11.8469C7.8237 11.0417 7.29139 10.3911 6.75767 9.93567L6.75909 9.93421ZM9.7195 1.54544L8.71253 2.57645C9.26052 3.13577 9.69532 3.80033 9.99198 4.53203C10.2887 5.26373 10.4414 6.04818 10.4414 6.84043C10.4414 7.63267 10.2887 8.41713 9.99198 9.14883C9.69532 9.88053 9.26052 10.5451 8.71253 11.1044L9.71808 12.1318C10.3984 11.4376 10.9382 10.6127 11.3064 9.70446C11.6746 8.79618 11.864 7.82238 11.8637 6.83897C11.8637 4.77402 11.0439 2.90143 9.71879 1.54544H9.7195ZM7.20457 9.55824L8.20941 10.5871C9.14877 9.62746 9.72946 8.30134 9.72946 6.83897C9.72946 5.3766 9.14877 4.05121 8.21083 3.08941L7.20457 4.12043C7.5538 4.47712 7.83086 4.90085 8.01991 5.36734C8.20895 5.83383 8.30626 6.33392 8.30626 6.83897C8.30626 7.34402 8.20895 7.84412 8.01991 8.31061C7.83086 8.7771 7.5538 9.20082 7.20457 9.55751V9.55824ZM11.2267 0L10.2233 1.03029C10.9699 1.79181 11.5621 2.69687 11.966 3.69346C12.3698 4.69006 12.5774 5.75854 12.5767 6.83751C12.5767 9.10357 11.6765 11.1583 10.2226 12.6469L11.2282 13.6772C12.1075 12.7807 12.8051 11.715 13.2808 10.5414C13.7565 9.36786 14.0009 8.10959 14 6.83897C14 4.17217 12.9397 1.7531 11.2289 0.000728583L11.2267 0Z" fill="#545454"/>
</svg>
