<svg width="39" height="47" viewBox="0 0 39 47" fill="none" xmlns="http://www.w3.org/2000/svg">
<path d="M35.1411 40.7454C33.1973 43.5972 31.1363 46.38 27.9981 46.426C24.8598 46.495 23.8528 44.6091 20.293 44.6091C16.7097 44.6091 15.609 46.38 12.6347 46.495C9.5667 46.61 7.24814 43.4592 5.28088 40.6764C1.27609 34.9958 -1.7919 24.5314 2.32998 17.4939C4.3675 13.9981 8.02099 11.7903 11.9789 11.7213C14.9767 11.6753 17.8339 13.7222 19.684 13.7222C21.5108 13.7222 24.9769 11.2613 28.607 11.6293C30.1293 11.6983 34.3917 12.2273 37.1318 16.183C36.921 16.321 32.0497 19.1268 32.0965 24.9454C32.1668 31.891 38.3028 34.2138 38.373 34.2368C38.3028 34.3978 37.3894 37.5486 35.1411 40.7454ZM21.7684 3.94782C23.4781 2.03894 26.3119 0.590041 28.6538 0.498047C28.9583 3.18887 27.8576 5.90269 26.2182 7.83456C24.6022 9.78943 21.9324 11.3073 19.3093 11.1003C18.958 8.45552 20.2695 5.6957 21.7684 3.94782Z" fill="white"/>
</svg>
