<svg width="122" height="31" viewBox="0 0 122 31" fill="none" xmlns="http://www.w3.org/2000/svg">
<g clip-path="url(#clip0_55189_930)">
<path d="M15.6899 26.7263C9.47025 26.7263 4.60169 21.713 4.60169 15.4982C4.60169 9.28368 9.47025 4.27035 15.6899 4.27035C19.0446 4.27035 21.4937 5.59035 23.3046 7.2813L26.2884 4.30011C23.765 1.88249 20.3954 0.0429688 15.6899 0.0429688C7.16964 0.0432068 0 6.98487 0 15.4982C0 24.0115 7.16964 30.9534 15.6899 30.9534C20.2916 30.9534 23.765 29.4406 26.4814 26.6225C29.2719 23.8339 30.1328 19.9182 30.1328 16.7442C30.1328 15.7503 30.0141 14.727 29.8805 13.9706H15.6899V18.0939H25.7985C25.5016 20.6749 24.6852 22.4399 23.4829 23.6411C22.0281 25.1096 19.7275 26.7263 15.6899 26.7263Z" fill="white"/>
<path d="M51.964 15.5047C51.964 21.2151 47.511 25.4125 42.0484 25.4125C36.586 25.4125 32.1328 21.2004 32.1328 15.5047C32.1328 9.76465 36.586 5.58203 42.0484 5.58203C47.511 5.58203 51.964 9.76465 51.964 15.5047ZM47.6297 15.5047C47.6297 11.9451 45.0467 9.49751 42.0484 9.49751C39.0501 9.49751 36.4671 11.9451 36.4671 15.5047C36.4671 19.0346 39.0501 21.5118 42.0484 21.5118C45.0469 21.5118 47.6297 19.0346 47.6297 15.5047Z" fill="white"/>
<path d="M73.7951 15.4977C73.7951 21.2082 69.3418 25.4056 63.8795 25.4056C58.4169 25.4056 53.9639 21.2079 53.9639 15.4977C53.9639 9.7577 58.4169 5.58984 63.8795 5.58984C69.3418 5.58984 73.7951 9.74294 73.7951 15.4977ZM69.4457 15.4977C69.4457 11.9382 66.863 9.49056 63.8644 9.49056C60.8659 9.49056 58.2832 11.9382 58.2832 15.4977C58.2832 19.0277 60.8662 21.5048 63.8644 21.5048C66.8778 21.5048 69.4457 19.0129 69.4457 15.4977Z" fill="white"/>
<path d="M90.6687 1.91876H94.7952V19.5395C94.7952 26.8516 90.4757 29.8626 85.3693 29.8626C80.5601 29.8626 77.6657 26.6292 76.582 24.004L80.3671 22.4316C81.0497 24.0483 82.6975 25.9619 85.3693 25.9619C88.6497 25.9619 90.6687 23.9297 90.6687 20.1328V18.709H90.5202C89.5404 19.8954 87.6701 20.9633 85.2952 20.9633C80.3373 20.9633 75.7949 16.6471 75.7949 11.0852C75.7949 5.49329 80.3373 1.13281 85.2952 1.13281C87.6554 1.13281 89.5404 2.18591 90.5202 3.34281H90.6687V1.91876ZM90.9653 11.0852C90.9653 7.58472 88.6349 5.03353 85.6662 5.03353C82.6677 5.03353 80.1443 7.58472 80.1443 11.0852C80.1443 14.5409 82.6677 17.0476 85.6662 17.0476C88.6352 17.0626 90.9656 14.5409 90.9656 11.0852" fill="white"/>
<path d="M96.7959 0.992188H101.071V30.0041H96.7959V0.992188Z" fill="white"/>
<path d="M117.795 18.7608L121.18 21.0153C120.081 22.632 117.454 25.4058 112.912 25.4058C107.271 25.4058 103.07 21.0451 103.07 15.4977C103.07 9.59461 107.316 5.58984 112.437 5.58984C117.587 5.58984 120.111 9.68342 120.927 11.8934L121.373 13.0208L108.102 18.5087C109.112 20.4963 110.685 21.5048 112.912 21.5048C115.138 21.5048 116.682 20.4072 117.795 18.7608ZM107.39 15.1865L116.252 11.5079C115.762 10.277 114.307 9.40199 112.57 9.40199C110.359 9.40199 107.286 11.3598 107.39 15.1865Z" fill="white"/>
</g>
<defs>
<clipPath id="clip0_55189_930">
<rect width="121.373" height="30.9105" fill="white" transform="translate(0 0.0429688)"/>
</clipPath>
</defs>
</svg>
