<svg width="63" height="45" viewBox="0 0 63 45" fill="none" xmlns="http://www.w3.org/2000/svg">
<path d="M7.06977 29.6345C7.06977 32.2068 7.58951 34.1818 8.2686 35.3766C9.15913 36.9416 10.487 37.6045 11.8411 37.6045C13.5875 37.6045 15.1852 37.1334 18.2639 32.5066C20.7306 28.7982 23.6371 23.5924 25.5925 20.3289L28.9044 14.8C31.205 10.9603 33.8676 6.69184 36.9208 3.79842C39.4127 1.43684 42.1015 0.125 44.8072 0.125C49.3501 0.125 53.6773 2.98553 56.9892 8.35053C60.6136 14.2261 62.373 21.6268 62.373 29.2642C62.373 33.8045 61.5496 37.1405 60.1481 39.7763C58.794 42.3253 56.1549 44.8718 51.7156 44.8718V37.6045C55.5167 37.6045 56.4654 33.8092 56.4654 29.4658C56.4654 23.2763 55.1372 16.4071 52.2116 11.4992C50.1351 8.01763 47.4444 5.89053 44.4841 5.89053C41.2824 5.89053 38.7058 8.51421 35.8102 13.1932C34.2708 15.6787 32.6903 18.7079 30.916 22.1258L28.9626 25.886C25.0384 33.446 24.0445 35.1679 22.0825 38.0097C18.6434 42.986 15.7071 44.8718 11.8411 44.8718C7.25529 44.8718 4.35509 42.7139 2.55927 39.4624C1.09307 36.8126 0.373047 33.3361 0.373047 29.3745L7.06977 29.6345Z" fill="white"/>
<path d="M5.65332 8.86342C8.72377 3.72132 13.1544 0.125 18.2362 0.125C21.1795 0.125 24.1051 1.07158 27.1603 3.7821C30.502 6.74553 34.0639 11.6255 38.5075 19.6684L40.1011 22.5545C43.9473 29.5174 46.1357 33.0992 47.4164 34.7887C49.0637 36.9579 50.2173 37.6045 51.7157 37.6045C55.5168 37.6045 56.4655 33.8092 56.4655 29.4658L62.3731 29.2642C62.3731 33.8045 61.5497 37.1405 60.1482 39.7763C58.7941 42.3253 56.155 44.8718 51.7157 44.8718C48.956 44.8718 46.5111 44.2205 43.8073 41.4489C41.7288 39.3218 39.299 35.5429 37.4295 32.1458L31.8689 22.0532C29.0791 16.9882 26.5197 13.2118 25.0387 11.5013C23.4456 9.66237 21.3972 7.44132 18.1286 7.44132C15.4832 7.44132 13.2365 9.45868 11.3564 12.5439L5.65332 8.86342Z" fill="white"/>
<path d="M18.1283 7.44132C15.4829 7.44132 13.2361 9.45868 11.356 12.5439C8.69776 16.9039 7.06977 23.3979 7.06977 29.6345C7.06977 32.2068 7.58951 34.1818 8.2686 35.3766L2.55927 39.4624C1.09307 36.8126 0.373047 33.3361 0.373047 29.3745C0.373047 22.1703 2.19284 14.6618 5.65322 8.86342C8.72367 3.72132 13.1543 0.125 18.2361 0.125L18.1283 7.44132Z" fill="white"/>
</svg>
