<svg width="56" height="55" viewBox="0 0 56 55" fill="none" xmlns="http://www.w3.org/2000/svg">
<path d="M28.3726 12.2856L34.0445 5.35104C41.151 5.73833 47.7693 7.43188 53.7964 10.1979L53.4595 10.0581C51.5725 12.5277 49.0552 14.4434 46.172 15.604L46.0551 15.6452C45.7205 12.3475 43.4105 11.5431 36.0772 11.5431L28.3749 54.9977L20.6268 11.534C13.3393 11.534 11.0293 12.3452 10.6924 15.6406C7.78105 14.502 5.23368 12.5938 3.32242 10.12L3.29263 10.081C8.97825 7.45021 15.5966 5.75208 22.5633 5.36708L22.703 5.36021L28.3726 12.2856ZM28.3726 3.34812C28.6178 3.34354 28.9066 3.34354 29.1953 3.34354C38.2864 3.34354 46.9283 5.26854 54.7337 8.73354L54.3326 8.57542C54.9121 7.60134 55.4103 6.58115 55.8222 5.52521L55.8726 5.38083C47.7349 2.02813 38.2933 0.0572917 28.3955 0H28.3726C18.7685 0.037732 9.26183 1.92694 0.373047 5.56417L0.87263 5.38313C1.38596 6.655 1.90159 7.70917 2.48367 8.72438L2.41263 8.59146C9.83305 5.27312 18.4933 3.34125 27.6072 3.34125L28.4139 3.34583L28.3726 3.34812Z" fill="white"/>
</svg>
